<?xml version="1.0" encoding="UTF-8"?>
<svg width="57px" height="50px" viewBox="0 0 57 50" version="1.1" xmlns="http://www.w3.org/2000/svg" xmlns:xlink="http://www.w3.org/1999/xlink">
    <!-- Generator: Sketch 58 (84663) - https://sketch.com -->
    <title>手柄圆 copy 2</title>
    <desc>Created with Sketch.</desc>
    <g id="Page-1" stroke="none" stroke-width="1" fill="none" fill-rule="evenodd">
        <g id="V-Guidelines" transform="translate(-1081.000000, -6048.000000)">
            <g id="Group-4-Copy-2" transform="translate(887.000000, 5958.000000)">
                <g id="Group-7">
                    <g id="手柄圆-copy-2" transform="translate(194.000000, 90.000000)">
                        <g id="Group-3-Copy-2">
                            <path d="M6,0 L14,0 L14,0 L14,50 L6,50 C2.6862915,50 4.05812251e-16,47.3137085 0,44 L0,6 C-4.05812251e-16,2.6862915 2.6862915,6.08718376e-16 6,0 Z" id="Rectangle" fill="#F7B500"></path>
                            <path d="M7.5,32 L7.5,18" id="Line-Copy-2" stroke="#1B1C22" stroke-width="2" stroke-linecap="round" stroke-linejoin="round"></path>
                        </g>
                        <path d="M13,1 L13,49 L49,49 L49,1 L13,1 Z" id="Rectangle-Copy-31" stroke="#F7B500" stroke-width="2" transform="translate(31.000000, 25.000000) scale(1, -1) translate(-31.000000, -25.000000) "></path>
                        <g id="Group-3-Copy-4" transform="translate(50.000000, 25.000000) scale(-1, 1) translate(-50.000000, -25.000000) translate(43.000000, 0.000000)">
                            <path d="M6,0 L14,0 L14,0 L14,50 L6,50 C2.6862915,50 4.05812251e-16,47.3137085 0,44 L0,6 C-4.05812251e-16,2.6862915 2.6862915,6.08718376e-16 6,0 Z" id="Rectangle" fill="#F7B500"></path>
                            <path d="M7.5,32 L7.5,18" id="Line-Copy-2" stroke="#1B1C22" stroke-width="2" stroke-linecap="round" stroke-linejoin="round"></path>
                        </g>
                    </g>
                </g>
            </g>
        </g>
    </g>
</svg>